<?xml version="1.0" standalone="no"?>
<!DOCTYPE svg PUBLIC "-//W3C//DTD SVG 20010904//EN"
 "http://www.w3.org/TR/2001/REC-SVG-20010904/DTD/svg10.dtd">
<svg version="1.0" xmlns="http://www.w3.org/2000/svg"
 width="143.000000pt" height="143.000000pt" viewBox="0 0 143.000000 143.000000"
 preserveAspectRatio="xMidYMid meet">
<metadata>
Created by potrace 1.14, written by Peter Selinger 2001-2017
</metadata>
<g transform="translate(0.000000,143.000000) scale(0.100000,-0.100000)"
fill="#000000" stroke="none">
<path d="M355 1388 c-18 -46 -89 -117 -147 -150 l-42 -23 0 -352 c1 -391 2
-400 67 -527 87 -170 297 -319 458 -327 117 -6 324 100 433 222 52 60 112 173
122 235 9 54 12 725 3 744 -4 8 -25 24 -46 35 -49 25 -118 98 -139 144 l-16
37 -339 0 -339 -1 -15 -37z"/>
</g>
</svg>
