<?xml version="1.0" encoding="utf-8"?>
<!-- Uploaded to: SVG Repo, www.svgrepo.com, Generator: SVG Repo Mixer Tools -->
<svg width="800px" height="800px" viewBox="0 0 1024 1024" class="icon"  version="1.1" xmlns="http://www.w3.org/2000/svg"><path d="M832 384c0 176.725333-320 576-320 576S192 560.725333 192 384 335.274667 64 512 64s320 143.274667 320 320z" fill="#9CCC65" /><path d="M661.333333 533.333333H362.666667c-24.725333 0-42.666667-17.621333-42.666667-42.666666v-210.666667c0-25.045333 20.053333-45.333333 44.8-45.333333h294.4c24.725333 0 44.8 20.288 44.8 45.333333V490.666667c0 25.045333-17.941333 42.666667-42.666667 42.666666" fill="#5E35B1" /><path d="M362.666667 277.333333h42.666666v42.666667h-42.666666z" fill="#8668C5" /><path d="M426.666667 384a106.688 106.688 0 0 1 213.333333 0 106.666667 106.666667 0 0 1-213.333333 0M597.333333 234.666667l-20.928-32.661334A21.461333 21.461333 0 0 0 558.421333 192H454.613333c-7.210667 0-13.952 3.754667-17.962666 10.005333L415.701333 234.666667H597.333333z" fill="#512DA8" /><path d="M469.333333 384a64.021333 64.021333 0 0 1 128 0 64.021333 64.021333 0 0 1-128 0" fill="#B388FF" /><path d="M548.416 390.250667a21.226667 21.226667 0 0 1-15.104-6.272 21.312 21.312 0 1 1-30.144-30.144c8.064-8.064 18.773333-12.501333 30.165333-12.501334h0.042667c11.392 0 22.101333 4.458667 30.144 12.522667a21.312 21.312 0 0 1-15.104 36.394667z" fill="#D2BDFF" /></svg>